# xmcd
#
# Track frame offsets: 
#        150
#        20364
#        49580
#        97794
#        112434
#        157212
#        190491
#        207080
#        253840
#        290818
#
# Disc length: 4478 seconds
#
# Revision: 2
# Processed by: cddbd v1.4PL0 Copyright (c) Steve Scherf et al.
# Submitted via: ExactAudioCopy v0.90b4
#
DISCID=96117c0a
DTITLE=Stevie Ray Vaughan And Double Trouble - Force Of Nature II - Di
DTITLE=sc 2
DYEAR=1900
DGENRE=
TTITLE0=Testify
TTITLE1=So Excited
TTITLE2=Voodoo Child
TTITLE3=Tell Me
TTITLE4=Texas Flood
TTITLE5=I'm Leaving You
TTITLE6=Pride And Joy
TTITLE7=Little Wing
TTITLE8=Third Stone From The Sun
TTITLE9=Lenny
EXTD=
EXTT0=
EXTT1=
EXTT2=
EXTT3=
EXTT4=
EXTT5=
EXTT6=
EXTT7=
EXTT8=
EXTT9=
PLAYORDER=
